Coordinates
version=1
nRows=9
nColumns=63
inDegrees=yes

Units are S.I. units (second, meters, Newtons, ...)
If the header above contains a line with 'inDegrees', this indicates whether rotational values are in degrees (yes) or radians (no).

endheader
time	pelvis_tilt	pelvis_list	pelvis_rotation	pelvis_tx	pelvis_ty	pelvis_tz	hip_flexion_r	hip_adduction_r	hip_rotation_r	knee_angle_r	knee_angle_r_beta	ankle_angle_r	subtalar_angle_r	mtp_angle_r	hip_flexion_l	hip_adduction_l	hip_rotation_l	knee_angle_l	knee_angle_l_beta	ankle_angle_l	subtalar_angle_l	mtp_angle_l	L5_S1_Flex_Ext	L5_S1_Lat_Bending	L5_S1_axial_rotation	L4_L5_Flex_Ext	L4_L5_Lat_Bending	L4_L5_axial_rotation	L3_L4_Flex_Ext	L3_L4_Lat_Bending	L3_L4_axial_rotation	L2_L3_Flex_Ext	L2_L3_Lat_Bending	L2_L3_axial_rotation	L1_L2_Flex_Ext	L1_L2_Lat_Bending	L1_L2_axial_rotation	L1_T12_Flex_Ext	L1_T12_Lat_Bending	L1_T12_axial_rotation	Abs_r3	Abs_r2	Abs_r1	Abs_t1	Abs_t2	neck_flexion	neck_bending	neck_rotation	arm_flex_r	arm_add_r	arm_rot_r	elbow_flex_r	pro_sup_r	wrist_flex_r	wrist_dev_r	arm_flex_l	arm_add_l	arm_rot_l	elbow_flex_l	pro_sup_l	wrist_flex_l	wrist_dev_l
      1.24528302	      9.59049231	     -3.82451987	     81.43134794	      0.48145294	      0.57828446	      0.70387945	      7.88428472	      8.90003299	      4.02437967	      9.55128281	      0.16670133	     17.82398339	     -4.14843703	      0.00000000	      2.72464151	     -7.70534708	    -15.74495700	      4.48711074	      0.07831486	     24.56155496	      6.41426540	      0.00000000	      0.04573249	      0.61723415	      1.99064382	      0.08492981	      0.82092143	      2.11505906	      0.07513391	      1.50074312	      2.11505906	      0.05226766	      1.50074312	      1.74181334	      0.04246719	      1.25866389	      1.61739810	      0.02613155	      0.95609571	      1.49298287	      0.32666261	      6.98227620	     11.07136374	      0.00000000	      0.00000000	     25.75027866	     -5.57029984	     -6.79877975	      6.23426950	    -15.37457625	     48.61280256	     61.81776931	     18.16405262	     -7.83997817	      4.22071126	     11.84851202	     -6.30670790	     55.40280734	     38.55607890	     86.32081490	      7.88957740	    -10.74486411
      1.26415094	      9.57874536	     -3.74340334	     81.70528917	      0.48087336	      0.57834617	      0.70491357	      7.93259233	      8.83422132	      3.97357404	      9.60249744	      0.16759520	     17.93846806	     -4.21085252	      0.00000000	      2.65834795	     -7.63479846	    -15.46199052	      4.25305268	      0.07422977	     24.45331069	      6.60194846	      0.00000000	      0.04776211	      0.61031312	      2.02880881	      0.08869901	      0.81171645	      2.15560936	      0.07846837	      1.48391532	      2.15560936	      0.05458731	      1.48391532	      1.77520771	      0.04435189	      1.24455052	      1.64840715	      0.02729127	      0.94537502	      1.52160660	      0.34115997	      6.90398409	     11.28362594	      0.00000000	      0.00000000	     25.43727518	     -5.40912574	     -6.95901096	      6.25945924	    -15.29659140	     48.65941858	     61.50222000	     18.11311268	     -7.99358597	      4.54119969	     12.00450846	     -6.16370522	     55.47949639	     37.90539025	     86.22082941	      7.81412017	    -10.67329474
      1.28301887	      9.52826938	     -3.51605075	     82.17450973	      0.48010286	      0.57852804	      0.70607098	      7.85164922	      8.68546388	      3.61362370	      9.67918707	      0.16893368	     18.01565045	     -4.23822609	      0.00000000	      2.48108761	     -7.47407765	    -14.96974041	      3.93882157	      0.06874540	     24.12398959	      6.57383943	      0.00000000	      0.03175696	      0.59212095	      2.01815860	      0.05897585	      0.78752087	      2.14429352	      0.05217351	      1.43968289	      2.14429352	      0.03629503	      1.43968289	      1.76588878	      0.02948951	      1.20745305	      1.63975387	      0.01814593	      0.91719536	      1.51361895	      0.22683679	      6.69819066	     11.22439271	      0.00000000	      0.00000000	     25.01347790	     -5.16216506	     -7.55566521	      6.32270774	    -15.06079618	     48.77531119	     61.04567667	     17.55110007	     -8.38911714	      6.32399456	     12.66278220	     -5.96999141	     56.71505054	     36.68812101	     85.77025098	      8.04565718	    -11.46541019
      1.30188679	      9.50109370	     -3.37673491	     82.43270287	      0.47951438	      0.57850518	      0.70736699	      7.90687425	      8.58469387	      3.08308262	      9.87204317	      0.17229966	     18.12527124	     -3.98751830	      0.00000000	      2.48048185	     -7.40034077	    -14.36532926	      3.90858545	      0.06821769	     24.02719412	      6.39255236	      0.00000000	      0.02667673	      0.58466501	      1.99608791	      0.04954135	      0.77760447	      2.12084341	      0.04382720	      1.42155451	      2.12084341	      0.03048883	      1.42155451	      1.74657692	      0.02477201	      1.19224889	      1.62182143	      0.01524308	      0.90564610	      1.49706593	      0.19054920	      6.61384754	     11.10164214	      0.00000000	      0.00000000	     24.96575509	     -4.90299592	     -7.50336814	      6.64800357	    -14.84762058	     49.66683374	     60.27686040	     17.32046423	     -8.28564305	      7.37185878	     13.20470851	     -5.76503107	     58.02608334	     35.64208646	     85.55133481	      7.35137098	    -12.01939279
      1.32075472	      9.50125021	     -3.24046798	     82.65642858	      0.47891334	      0.57844836	      0.70864916	      8.01181113	      8.47010051	      1.99971706	     10.18989415	      0.17784720	     18.43169867	     -2.99992770	      0.00000000	      2.48841037	     -7.35175493	    -13.49441558	      3.90311730	      0.06812225	     23.90386943	      5.89923258	      0.00000000	      0.02034134	      0.58267394	      1.95548011	      0.03777589	      0.77495634	      2.07769761	      0.03341878	      1.41671342	      2.07769761	      0.02324811	      1.41671342	      1.71104509	      0.01888896	      1.18818870	      1.58882759	      0.01162304	      0.90256193	      1.46661008	      0.14529613	      6.59132413	     10.87579371	      0.00000000	      0.00000000	     25.24735072	     -4.64857119	     -7.29782666	      7.15845500	    -14.65895256	     50.90705608	     59.31421176	     17.42665369	     -7.61564938	      8.03932058	     13.75999651	     -5.57229744	     59.74993052	     34.70514544	     85.45578637	      5.99343913	    -12.80368058
      1.33962264	      9.48923615	     -3.11380090	     82.76188051	      0.47874475	      0.57834488	      0.70964787	      8.05696252	      8.41938044	      1.46005219	     10.41808536	      0.18182989	     18.62693770	     -2.59636536	      0.00000000	      2.50376080	     -7.34518011	    -13.03816326	      3.98505597	      0.06955235	     23.89368249	      5.80577561	      0.00000000	      0.01283740	      0.57904224	      1.90476827	      0.02384034	      0.77012618	      2.02381629	      0.02109057	      1.40788330	      2.02381629	      0.01467187	      1.40788330	      1.66667224	      0.01192081	      1.18078293	      1.54762422	      0.00733529	      0.89693643	      1.42857620	      0.09169628	      6.55024161	     10.59374969	      0.00000000	      0.00000000	     25.83664115	     -4.60705368	     -7.00452362	      7.73855842	    -14.39864982	     52.18221522	     58.38115914	     17.80194344	     -7.13254141	      8.84694415	     14.07891057	     -5.51471158	     60.73611264	     34.22898129	     85.86629047	      5.21009437	    -13.10521948
      1.35849057	      9.50993982	     -2.99515472	     82.77886750	      0.47856264	      0.57831911	      0.71020848	      7.93846684	      8.42881834	      1.14107545	     10.36243142	      0.18085855	     18.71817514	     -2.36637069	      0.00000000	      2.51336326	     -7.37114491	    -12.86251347	      4.14997143	      0.07243067	     23.95993269	      5.70669535	      0.00000000	      0.00749781	      0.58324582	      1.87351786	      0.01392419	      0.77571694	      1.99061273	      0.01231816	      1.41810389	      1.99061273	      0.00856925	      1.41810389	      1.63932813	      0.00696247	      1.18935488	      1.52223326	      0.00428425	      0.90344777	      1.40513840	      0.05355612	      6.59779336	     10.41994429	      0.00000000	      0.00000000	     26.50199851	     -4.74556740	     -6.80608088	      8.17066154	    -14.20174133	     53.11832498	     57.56740875	     18.14650270	     -6.73289959	      9.38622146	     14.24050128	     -5.36783529	     61.34308761	     33.92072196	     86.11268966	      4.58294766	    -13.28572448
      1.37735849	      9.62160558	     -2.94005070	     83.03599440	      0.47816461	      0.57826429	      0.70997178	      7.79383446	      8.35330331	     -0.83407937	     10.25788609	      0.17903389	     19.25165990	      0.29005322	      0.00000000	      2.61144518	     -7.53835784	    -12.98278474	      4.44022690	      0.07749658	     24.22108211	      6.33074369	      0.00000000	      0.01980585	      0.59817432	      1.79284703	      0.03678145	      0.79557184	      1.90489997	      0.03253903	      1.45440104	      1.90489997	      0.02263611	      1.45440104	      1.56874115	      0.01839171	      1.21979707	      1.45668821	      0.01131706	      0.92657202	      1.34463527	      0.14147122	      6.76666752	      9.97127733	      0.00000000	      0.00000000	     27.02994874	     -4.85619248	     -6.52238324	      8.26109435	    -13.98417316	     53.31690515	     56.67567172	     20.06408914	     -5.33292392	     10.01972993	     14.55506244	     -5.26408850	     63.06327943	     33.59769340	     85.74311381	      3.03019393	    -14.50254637
      1.39622642	      9.73817736	     -2.81672476	     82.93616408	      0.47863064	      0.57843573	      0.70896847	      7.20694587	      8.57463473	     -0.05186453	      9.55343162	      0.16673884	     18.90514716	     -0.49225471	      0.00000000	      2.42369474	     -7.71205786	    -13.36065708	      4.60185374	      0.08031750	     24.38031205	      6.59331643	      0.00000000	      0.02466721	      0.61042641	      1.74169392	      0.04580947	      0.81186712	      1.85054979	      0.04052576	      1.48419077	      1.85054979	      0.02819215	      1.48419077	      1.52398218	      0.02290597	      1.24478153	      1.41512631	      0.01409484	      0.94555051	      1.30627044	      0.17619540	      6.90526562	      9.68677905	      0.00000000	      0.00000000	     27.43798720	     -4.87444529	     -6.05971273	      8.66875532	    -13.87797467	     54.55206005	     56.10352220	     18.62904907	     -5.02072332	      9.86500370	     14.11326698	     -5.27630436	     62.18560954	     33.96257624	     86.09663384	      3.22494185	    -14.16095686
